Coordinates
version=1
nRows=11
nColumns=63
inDegrees=yes

Units are S.I. units (second, meters, Newtons, ...)
If the header above contains a line with 'inDegrees', this indicates whether rotational values are in degrees (yes) or radians (no).

endheader
time	pelvis_tilt	pelvis_list	pelvis_rotation	pelvis_tx	pelvis_ty	pelvis_tz	hip_flexion_r	hip_adduction_r	hip_rotation_r	knee_angle_r	knee_angle_r_beta	ankle_angle_r	subtalar_angle_r	mtp_angle_r	hip_flexion_l	hip_adduction_l	hip_rotation_l	knee_angle_l	knee_angle_l_beta	ankle_angle_l	subtalar_angle_l	mtp_angle_l	L5_S1_Flex_Ext	L5_S1_Lat_Bending	L5_S1_axial_rotation	L4_L5_Flex_Ext	L4_L5_Lat_Bending	L4_L5_axial_rotation	L3_L4_Flex_Ext	L3_L4_Lat_Bending	L3_L4_axial_rotation	L2_L3_Flex_Ext	L2_L3_Lat_Bending	L2_L3_axial_rotation	L1_L2_Flex_Ext	L1_L2_Lat_Bending	L1_L2_axial_rotation	L1_T12_Flex_Ext	L1_T12_Lat_Bending	L1_T12_axial_rotation	Abs_r3	Abs_r2	Abs_r1	Abs_t1	Abs_t2	neck_flexion	neck_bending	neck_rotation	arm_flex_r	arm_add_r	arm_rot_r	elbow_flex_r	pro_sup_r	wrist_flex_r	wrist_dev_r	arm_flex_l	arm_add_l	arm_rot_l	elbow_flex_l	pro_sup_l	wrist_flex_l	wrist_dev_l
3.000000	-1.735314	-2.576233	101.488918	0.102878	1.091869	0.032848	3.236735	-3.814377	1.711720	16.410879	0.286424	39.466985	-15.105396	0.000000	1.216422	4.396951	6.624109	9.630251	0.168080	35.232036	6.487846	0.000000	-0.195996	-1.285011	-2.384233	-0.363984	-1.709064	-2.533248	-0.322002	-3.124375	-2.533248	-0.224004	-3.124375	-2.086204	-0.182002	-2.620394	-1.937189	-0.111992	-1.990481	-1.788175	-1.399979	-14.536298	-13.260390	0.000000	0.000000	13.187545	9.001410	-19.036660	22.837424	-10.411018	4.863374	136.340602	88.855719	-16.514931	-1.044219	7.860165	-7.479712	144.762673	1.213463	1.736717	-5.912054	-10.373416
3.018519	-1.648078	-2.994600	101.581731	0.103040	1.091207	0.034251	3.827720	-3.788049	1.715075	16.565245	0.289118	39.475596	-15.246985	0.000000	1.811417	4.369048	6.636488	9.805631	0.171141	35.279183	6.658706	0.000000	-0.174882	-1.279192	-2.339128	-0.324773	-1.701325	-2.485323	-0.287313	-3.110227	-2.485323	-0.199873	-3.110227	-2.046737	-0.162395	-2.608528	-1.900541	-0.099928	-1.981468	-1.754346	-1.249164	-14.470475	-13.009526	0.000000	0.000000	13.987692	8.771271	-19.678287	21.587589	-10.567656	3.717689	136.255048	88.657137	-15.973587	0.267610	8.240018	-7.447343	145.359709	1.292479	1.750538	-5.906999	-10.227533
3.037037	-1.574678	-3.408755	101.644691	0.103291	1.090534	0.035697	4.452398	-3.790690	1.643505	16.790800	0.293055	39.526903	-15.289004	0.000000	2.395083	4.348645	6.587392	9.950081	0.173662	35.369255	6.926751	0.000000	-0.153388	-1.275010	-2.288898	-0.284858	-1.695764	-2.431954	-0.252002	-3.100060	-2.431954	-0.175308	-3.100060	-2.002786	-0.142437	-2.600001	-1.859730	-0.087646	-1.974991	-1.716674	-1.095639	-14.423173	-12.730164	0.000000	0.000000	14.821771	8.547316	-20.274640	20.472420	-10.616571	2.668226	136.017498	88.437205	-15.524599	1.453515	8.622920	-7.411679	145.907336	1.377451	1.769788	-5.938207	-10.064161
3.055556	-1.528004	-3.794668	101.631339	0.103678	1.089870	0.037150	5.088422	-3.821607	1.572173	17.086391	0.298214	39.607768	-15.264827	0.000000	2.915480	4.365307	6.734068	10.026378	0.174993	35.412669	6.878683	0.000000	-0.132721	-1.274201	-2.231046	-0.246477	-1.694687	-2.370486	-0.218048	-3.098092	-2.370486	-0.151687	-3.098092	-1.952165	-0.123245	-2.598350	-1.812725	-0.075837	-1.973737	-1.673284	-0.948014	-14.414014	-12.408408	0.000000	0.000000	15.634814	8.334710	-20.805661	19.508797	-10.567601	1.768359	135.630244	88.209608	-15.167020	2.487079	8.980988	-7.379641	146.411917	1.456236	1.775064	-5.985118	-9.879765
3.074074	-1.502906	-4.132056	101.599862	0.104172	1.089245	0.038629	5.692042	-3.845606	1.602088	17.416966	0.303983	39.657462	-15.397506	0.000000	3.381940	4.390545	6.836960	10.088057	0.176070	35.468144	6.871886	0.000000	-0.115529	-1.277054	-2.186828	-0.214549	-1.698482	-2.323505	-0.189802	-3.105030	-2.323505	-0.132038	-3.105030	-1.913474	-0.107280	-2.604169	-1.776798	-0.066013	-1.978157	-1.640121	-0.825211	-14.446295	-12.162480	0.000000	0.000000	16.392167	8.178515	-21.214399	18.694479	-10.382292	0.986652	135.111656	87.971735	-14.591043	3.531361	9.270631	-7.371303	146.696766	1.530021	1.752620	-6.046598	-9.717603
3.092593	-1.510801	-4.404564	101.497274	0.104801	1.088666	0.040099	6.266969	-3.887012	1.684200	17.812871	0.310893	39.729200	-15.532465	0.000000	3.749309	4.440788	6.992827	10.093665	0.176168	35.476627	6.705568	0.000000	-0.102445	-1.284923	-2.150891	-0.190250	-1.708948	-2.285322	-0.168306	-3.124163	-2.285322	-0.117084	-3.124163	-1.882030	-0.095130	-2.620216	-1.747599	-0.058537	-1.990346	-1.613168	-0.731753	-14.535310	-11.962611	0.000000	0.000000	17.057270	8.049163	-21.525440	18.024806	-10.059096	0.380651	134.470999	87.770485	-13.981386	4.393188	9.452861	-7.392955	146.540575	1.589384	1.715216	-6.087591	-9.604753
3.111111	-1.526610	-4.600859	101.387895	0.105479	1.088149	0.041524	6.762549	-3.914293	1.779697	18.213471	0.317885	39.804161	-15.689724	0.000000	4.028048	4.478675	7.125093	10.086046	0.176035	35.468015	6.552024	0.000000	-0.094506	-1.294254	-2.142433	-0.175507	-1.721358	-2.276336	-0.155264	-3.146850	-2.276336	-0.108011	-3.146850	-1.874629	-0.087758	-2.639244	-1.740727	-0.054001	-2.004800	-1.606825	-0.675048	-14.640866	-11.915572	0.000000	0.000000	17.605124	7.994937	-21.620275	17.502429	-9.600293	0.007160	133.717362	87.617081	-13.406815	4.985506	9.501326	-7.447689	146.063891	1.621090	1.682452	-6.094372	-9.466910
3.129630	-1.568822	-4.714172	101.248311	0.106214	1.087715	0.042818	7.167914	-3.949483	1.898770	18.623640	0.325044	39.891678	-15.842728	0.000000	4.181644	4.530620	7.318701	10.029242	0.175043	35.395437	6.264475	0.000000	-0.092479	-1.306826	-2.156052	-0.171743	-1.738079	-2.290805	-0.151934	-3.177417	-2.290805	-0.105695	-3.177417	-1.886545	-0.085876	-2.664880	-1.751792	-0.052843	-2.024273	-1.617039	-0.660571	-14.783077	-11.991312	0.000000	0.000000	18.046042	7.990023	-21.547604	17.101763	-9.006437	-0.154855	132.887008	87.516401	-12.920512	5.199198	9.426317	-7.544783	145.566725	1.618964	1.624262	-6.038283	-9.201715
3.148148	-1.588702	-4.787325	101.137831	0.106835	1.087329	0.043848	7.487990	-3.955530	1.974053	18.980248	0.331268	39.972070	-15.984165	0.000000	4.269985	4.557430	7.605416	9.952162	0.173698	35.276329	5.857311	0.000000	-0.090028	-1.315506	-2.187592	-0.167191	-1.749623	-2.324316	-0.147907	-3.198521	-2.324316	-0.102893	-3.198521	-1.914143	-0.083600	-2.682579	-1.777418	-0.051442	-2.037718	-1.640694	-0.643060	-14.881264	-12.166728	0.000000	0.000000	18.391652	8.032847	-21.322497	16.741940	-8.372552	-0.238804	132.153757	87.474102	-12.493800	5.245883	9.272816	-7.641426	145.389032	1.586744	1.582942	-5.828734	-8.649311
3.166667	-1.556842	-4.817190	101.022460	0.107227	1.087067	0.044542	7.709570	-3.906722	2.050086	19.256407	0.336088	40.008320	-16.125623	0.000000	4.283617	4.537664	7.967707	9.845657	0.171839	35.114992	5.308238	0.000000	-0.085950	-1.312228	-2.227402	-0.159617	-1.745264	-2.366615	-0.141207	-3.190552	-2.366615	-0.098232	-3.190552	-1.948977	-0.079813	-2.675896	-1.809764	-0.049112	-2.032642	-1.670551	-0.613930	-14.844190	-12.388141	0.000000	0.000000	18.595181	8.059392	-20.823365	16.462953	-7.779697	-0.250766	131.556466	87.486194	-12.286702	5.139887	9.114705	-7.705009	145.656841	1.522642	1.670368	-5.136948	-7.882747
3.185185	-1.420533	-4.804215	100.881475	0.107201	1.087052	0.044879	7.818555	-3.767330	2.082375	19.408974	0.338750	39.957451	-16.168559	0.000000	4.222850	4.429003	8.391623	9.701619	0.169325	34.903765	4.593362	0.000000	-0.077689	-1.286012	-2.256006	-0.144277	-1.710396	-2.397006	-0.127636	-3.126810	-2.397006	-0.088791	-3.126810	-1.974005	-0.072142	-2.622436	-1.833005	-0.044392	-1.992033	-1.692004	-0.554928	-14.547628	-12.547227	0.000000	0.000000	18.571066	7.997842	-20.016460	16.272140	-7.354852	-0.336476	131.170543	87.547923	-12.272309	5.005073	9.039413	-7.694066	146.365912	1.426630	1.801272	-3.657446	-7.468157
